<svg width="22" height="22" viewBox="0 0 22 22" fill="none" xmlns="http://www.w3.org/2000/svg">
<path d="M2.75016 4.58341L9.87461 10.1246C10.5366 10.6396 11.4637 10.6396 12.1257 10.1246L19.2502 4.58341M4.76683 18.3334H17.2335C18.2603 18.3334 18.7736 18.3334 19.1658 18.1336C19.5108 17.9578 19.7912 17.6774 19.967 17.3324C20.1668 16.9402 20.1668 16.4268 20.1668 15.4001V6.60008C20.1668 5.57332 20.1668 5.05994 19.967 4.66777C19.7912 4.3228 19.5108 4.04234 19.1658 3.86657C18.7736 3.66675 18.2603 3.66675 17.2335 3.66675H4.76683C3.74007 3.66675 3.22668 3.66675 2.83451 3.86657C2.48955 4.04234 2.20909 4.3228 2.03332 4.66777C1.8335 5.05994 1.8335 5.57332 1.8335 6.60008V15.4001C1.8335 16.4268 1.8335 16.9402 2.03332 17.3324C2.20909 17.6774 2.48955 17.9578 2.83451 18.1336C3.22668 18.3334 3.74007 18.3334 4.76683 18.3334Z" stroke="#5F6D7E" stroke-width="1.67"/>
</svg>
